<?xml version="1.0" standalone="no"?>
<!DOCTYPE svg PUBLIC "-//W3C//DTD SVG 20010904//EN"
 "http://www.w3.org/TR/2001/REC-SVG-20010904/DTD/svg10.dtd">
<svg version="1.0" xmlns="http://www.w3.org/2000/svg"
 width="101.000000pt" height="80.000000pt" viewBox="0 0 101.000000 80.000000"
 preserveAspectRatio="xMidYMid meet">

<g transform="translate(0.000000,80.000000) scale(0.100000,-0.100000)"
fill="#000000" stroke="none">
<path d="M0 405 l0 -397 328 4 c364 5 383 8 479 74 107 73 165 187 165 319 0
133 -52 237 -157 317 -93 71 -101 72 -477 76 l-338 3 0 -396z m741 328 c79
-39 140 -102 177 -181 23 -49 27 -70 27 -147 -1 -78 -5 -98 -30 -149 -54 -112
-154 -185 -282 -206 -32 -6 -181 -10 -330 -10 l-273 0 0 366 0 365 323 -3 322
-3 66 -32z"/>
</g>
</svg>
