<?xml version="1.0" standalone="no"?>
<!DOCTYPE svg PUBLIC "-//W3C//DTD SVG 20010904//EN"
 "http://www.w3.org/TR/2001/REC-SVG-20010904/DTD/svg10.dtd">
<svg version="1.0" xmlns="http://www.w3.org/2000/svg"
 width="122.000000pt" height="81.000000pt" viewBox="0 0 122.000000 81.000000"
 preserveAspectRatio="xMidYMid meet">

<g transform="translate(0.000000,81.000000) scale(0.100000,-0.100000)"
fill="#000000" stroke="none">
<path d="M20 410 l0 -391 348 3 347 3 59 29 c110 55 202 176 214 282 l5 46 24
-30 c62 -80 187 -26 169 74 -14 74 -113 101 -166 44 l-27 -29 -6 40 c-15 113
-122 245 -235 291 -55 22 -69 23 -394 26 l-338 3 0 -391z m741 323 c79 -39
140 -102 177 -181 23 -49 27 -70 27 -147 -1 -77 -5 -98 -29 -147 -56 -117
-165 -193 -298 -209 -40 -4 -189 -8 -330 -9 l-258 0 0 366 0 365 323 -3 322
-3 66 -32z m385 -289 c22 -33 10 -72 -29 -94 -24 -13 -30 -13 -54 0 -35 19
-43 72 -17 101 26 29 79 25 100 -7z"/>
</g>
</svg>
