<?xml version="1.0" standalone="no"?>
<!DOCTYPE svg PUBLIC "-//W3C//DTD SVG 20010904//EN"
 "http://www.w3.org/TR/2001/REC-SVG-20010904/DTD/svg10.dtd">
<svg version="1.0" xmlns="http://www.w3.org/2000/svg"
 width="122.000000pt" height="81.000000pt" viewBox="0 0 122.000000 81.000000"
 preserveAspectRatio="xMidYMid meet">

<g transform="translate(0.000000,81.000000) scale(0.100000,-0.100000)"
fill="#000000" stroke="none">
<path d="M19 796 c-3 -3 9 -36 28 -73 51 -106 67 -181 68 -318 0 -129 -19
-215 -72 -318 -13 -27 -23 -53 -21 -58 6 -17 382 -12 467 6 185 39 351 143
457 287 l42 58 15 -24 c20 -30 69 -50 103 -42 72 18 96 98 48 155 -21 26 -33
31 -69 31 -36 0 -48 -5 -70 -32 -21 -25 -28 -29 -35 -17 -59 94 -178 200 -292
259 -130 68 -201 82 -448 87 -118 3 -218 2 -221 -1z m466 -40 c180 -39 356
-155 454 -299 l33 -49 -37 -53 c-72 -105 -208 -212 -323 -255 -120 -45 -160
-51 -356 -50 -104 0 -191 2 -193 4 -3 2 5 22 15 43 51 99 75 258 61 394 -7 73
-36 174 -74 262 -7 16 5 17 176 17 113 -1 207 -6 244 -14z m647 -303 c24 -21
23 -68 -2 -93 -58 -58 -148 31 -93 92 20 22 70 23 95 1z"/>
</g>
</svg>
