<?xml version="1.0" standalone="no"?>
<!DOCTYPE svg PUBLIC "-//W3C//DTD SVG 20010904//EN"
 "http://www.w3.org/TR/2001/REC-SVG-20010904/DTD/svg10.dtd">
<svg version="1.0" xmlns="http://www.w3.org/2000/svg"
 width="86.000000pt" height="76.000000pt" viewBox="0 0 86.000000 76.000000"
 preserveAspectRatio="xMidYMid meet">

<g transform="translate(0.000000,76.000000) scale(0.100000,-0.100000)"
fill="#000000" stroke="none">
<path d="M30 380 c0 -192 4 -350 8 -350 5 0 133 74 286 165 153 91 282 165
286 165 5 0 11 -9 15 -20 3 -11 18 -29 32 -40 46 -36 116 -22 146 30 21 35 21
62 2 100 -19 36 -43 50 -89 50 -38 0 -96 -40 -96 -67 0 -9 -6 -13 -15 -9 -8 3
-136 78 -284 166 -149 88 -275 160 -280 160 -8 0 -11 -112 -11 -350z m308 145
c127 -75 232 -140 232 -144 0 -3 -115 -75 -255 -158 l-255 -151 0 310 0 310
23 -14 c12 -8 127 -77 255 -153z m432 -97 c26 -28 26 -58 -1 -92 -39 -50 -122
-22 -122 42 0 66 78 98 123 50z"/>
</g>
</svg>
