<?xml version="1.0" standalone="no"?>
<!DOCTYPE svg PUBLIC "-//W3C//DTD SVG 20010904//EN"
 "http://www.w3.org/TR/2001/REC-SVG-20010904/DTD/svg10.dtd">
<svg version="1.0" xmlns="http://www.w3.org/2000/svg"
 width="136.000000pt" height="85.000000pt" viewBox="0 0 136.000000 85.000000"
 preserveAspectRatio="xMidYMid meet">

<g transform="translate(0.000000,85.000000) scale(0.100000,-0.100000)"
fill="#000000" stroke="none">
<path d="M50 806 c0 -8 13 -42 30 -77 45 -98 63 -181 63 -299 0 -113 -15 -190
-59 -294 -35 -84 -38 -96 -25 -96 15 0 65 107 87 185 9 33 18 112 21 176 4 96
2 129 -16 199 -31 123 -101 266 -101 206z"/>
<path d="M160 812 c0 -5 13 -38 30 -73 95 -206 92 -440 -11 -640 -11 -22 -19
-45 -17 -50 2 -6 79 -10 198 -10 261 0 368 23 516 112 75 45 184 147 224 209
l33 51 27 -33 c22 -26 34 -32 65 -32 74 0 112 88 60 139 -42 43 -116 28 -138
-26 -6 -15 -2 -19 -75 74 -86 113 -250 219 -399 259 -64 17 -117 21 -295 25
-143 4 -218 2 -218 -5z m452 -33 c180 -36 355 -146 454 -285 l47 -65 -37 -54
c-98 -142 -272 -256 -451 -295 -45 -10 -413 -15 -423 -6 -2 2 6 22 16 43 51
100 77 264 62 397 -8 71 -38 174 -75 259 -7 16 5 17 173 17 100 0 205 -5 234
-11z m646 -305 c41 -28 18 -104 -31 -104 -53 0 -77 75 -35 104 12 9 27 16 33
16 6 0 21 -7 33 -16z"/>
</g>
</svg>
