<?xml version="1.0" standalone="no"?>
<!DOCTYPE svg PUBLIC "-//W3C//DTD SVG 20010904//EN"
 "http://www.w3.org/TR/2001/REC-SVG-20010904/DTD/svg10.dtd">
<svg version="1.0" xmlns="http://www.w3.org/2000/svg"
 width="120.000000pt" height="81.000000pt" viewBox="0 0 120.000000 81.000000"
 preserveAspectRatio="xMidYMid meet">

<g transform="translate(0.000000,81.000000) scale(0.100000,-0.100000)"
fill="#000000" stroke="none">
<path d="M60 786 c0 -8 13 -42 30 -77 44 -96 62 -181 63 -294 0 -117 -14 -191
-55 -289 -39 -93 -42 -106 -29 -106 15 0 54 80 81 165 34 107 39 285 11 394
-31 124 -101 267 -101 207z"/>
<path d="M170 790 c0 -7 13 -40 30 -74 89 -184 92 -416 5 -602 -19 -43 -33
-85 -30 -92 9 -24 384 -10 490 17 146 39 276 113 371 213 55 57 114 139 114
158 0 19 -60 99 -117 157 -100 99 -222 168 -373 210 -75 21 -490 32 -490 13z
m486 -40 c187 -48 333 -149 443 -308 l23 -32 -23 -38 c-34 -55 -127 -149 -189
-192 -154 -104 -245 -129 -509 -137 -188 -6 -194 -5 -186 13 105 249 105 455
0 697 -7 16 5 17 177 17 152 0 199 -4 264 -20z"/>
</g>
</svg>
