<?xml version="1.0" standalone="no"?>
<!DOCTYPE svg PUBLIC "-//W3C//DTD SVG 20010904//EN"
 "http://www.w3.org/TR/2001/REC-SVG-20010904/DTD/svg10.dtd">
<svg version="1.0" xmlns="http://www.w3.org/2000/svg"
 width="104.000000pt" height="81.000000pt" viewBox="0 0 104.000000 81.000000"
 preserveAspectRatio="xMidYMid meet">

<g transform="translate(0.000000,81.000000) scale(0.100000,-0.100000)"
fill="#000000" stroke="none">
<path d="M30 791 c0 -5 13 -37 30 -72 95 -206 92 -440 -11 -640 -36 -72 -35
-73 194 -66 160 4 219 10 282 26 191 51 353 162 455 315 33 49 33 49 16 81
-10 18 -37 56 -61 85 -118 144 -305 246 -497 270 -101 12 -408 13 -408 1z
m486 -41 c187 -48 333 -149 443 -308 l23 -32 -23 -38 c-82 -133 -260 -260
-427 -303 -94 -25 -462 -40 -462 -20 0 6 9 29 19 49 51 100 75 259 60 396 -9
74 -37 174 -74 259 -7 16 5 17 177 17 152 0 199 -4 264 -20z"/>
</g>
</svg>
