<svg width="58" height="80" viewBox="0 0 58 80" fill="none" xmlns="http://www.w3.org/2000/svg">
<path d="M11.8573 8.79835e-07C8.82624 8.79835e-07 5.91933 1.20408 3.77606 3.34735C1.63279 5.49063 0.428711 8.39753 0.428711 11.4286V68.5714C0.428711 71.6025 1.63279 74.5094 3.77606 76.6526C5.91933 78.7959 8.82624 80 11.8573 80H46.143C49.174 80 52.0809 78.7959 54.2242 76.6526C56.3675 74.5094 57.5716 71.6025 57.5716 68.5714V25.2229C57.5696 22.9503 56.6652 20.7716 55.0573 19.1657L38.4116 2.50857C37.6152 1.71276 36.67 1.08162 35.6297 0.651194C34.5894 0.220768 33.4745 -0.000509195 32.3487 8.79835e-07H11.8573ZM6.143 11.4286C6.143 9.91305 6.74504 8.4596 7.81667 7.38796C8.88831 6.31633 10.3418 5.71429 11.8573 5.71429H29.0001V20C29.0001 22.2733 29.9032 24.4535 31.5107 26.0609C33.1181 27.6684 35.2983 28.5714 37.5716 28.5714H51.8573V68.5714C51.8573 70.087 51.2552 71.5404 50.1836 72.612C49.112 73.6837 47.6585 74.2857 46.143 74.2857H11.8573C10.3418 74.2857 8.88831 73.6837 7.81667 72.612C6.74504 71.5404 6.143 70.087 6.143 68.5714V11.4286ZM50.6744 22.8571H37.5716C36.8138 22.8571 36.0871 22.5561 35.5513 22.0203C35.0154 21.4845 34.7144 20.7578 34.7144 20V6.89714L50.6744 22.8571Z" fill="white"/>
</svg>
