<svg width="72" height="80" viewBox="0 0 72 80" fill="none" xmlns="http://www.w3.org/2000/svg">
<path d="M64.2086 29.9837C65.3401 28.6905 64.4218 26.6667 62.7035 26.6667H51.3332C50.2287 26.6667 49.3332 25.7712 49.3332 24.6667V2C49.3332 0.895429 48.4378 0 47.3332 0H24.6666C23.562 0 22.6666 0.895431 22.6666 2V24.6667C22.6666 25.7712 21.7711 26.6667 20.6666 26.6667H9.29632C7.578 26.6667 6.65964 28.6905 7.79116 29.9837L34.4947 60.5021C35.2916 61.4127 36.7082 61.4127 37.505 60.502L64.2086 29.9837ZM0.444336 73.1111C0.444336 72.0065 1.33977 71.1111 2.44434 71.1111H69.5554C70.66 71.1111 71.5554 72.0065 71.5554 73.1111V78C71.5554 79.1046 70.66 80 69.5554 80H2.44433C1.33977 80 0.444336 79.1046 0.444336 78V73.1111Z" fill="white"/>
</svg>
