<svg width="24" height="24" viewBox="0 0 24 24" fill="none" xmlns="http://www.w3.org/2000/svg">
<path fill-rule="evenodd" clip-rule="evenodd" d="M2 12C2 11.4477 2.44772 11 3 11H21C21.5523 11 22 11.4477 22 12C22 12.5523 21.5523 13 21 13H3C2.44772 13 2 12.5523 2 12Z" fill="white"/>
<path fill-rule="evenodd" clip-rule="evenodd" d="M2 6C2 5.44772 2.44772 5 3 5H21C21.5523 5 22 5.44772 22 6C22 6.55228 21.5523 7 21 7H3C2.44772 7 2 6.55228 2 6Z" fill="white"/>
<path fill-rule="evenodd" clip-rule="evenodd" d="M2 18C2 17.4477 2.44772 17 3 17H21C21.5523 17 22 17.4477 22 18C22 18.5523 21.5523 19 21 19H3C2.44772 19 2 18.5523 2 18Z" fill="white"/>
<path d="M0 0V-1C-0.552285 -1 -1 -0.552285 -1 0L0 0ZM24 0H25C25 -0.552285 24.5523 -1 24 -1V0ZM24 24V25C24.5523 25 25 24.5523 25 24H24ZM0 24H-1C-1 24.5523 -0.552285 25 0 25L0 24ZM0 1H24V-1H0V1ZM23 0V24H25V0H23ZM24 23H0V25H24V23ZM1 24V0H-1V24H1Z" fill="black"/>
</svg>
