<svg width="54" height="80" viewBox="0 0 54 80" fill="none" xmlns="http://www.w3.org/2000/svg">
<path fill-rule="evenodd" clip-rule="evenodd" d="M24.665 0.0866295C9.84353 1.00875 1.78172 9.06766 0.472567 23.6369C0.370584 24.7719 1.2846 25.7279 2.42411 25.7279H14.0549C15.1318 25.7279 15.9972 24.8699 16.1797 23.8086C16.9571 19.2862 19.9399 16.0364 24.973 15.5026C30.5876 14.9066 35.9143 16.2439 37.5276 20.0826C39.2703 24.2293 35.3583 29.0479 33.4983 31.0706C30.0556 34.8212 24.4636 37.5572 21.565 41.6039C19.0368 45.1322 18.3581 49.6517 18.0851 55.1032C18.0286 56.2332 18.9379 57.1719 20.0693 57.1719H29.8868C30.9546 57.1719 31.829 56.3327 31.897 55.2671C32.112 51.8956 32.5511 48.7804 34.117 46.6412C37.1383 42.5186 41.6503 40.5866 45.4316 37.3306C49.0436 34.2186 52.8436 30.4679 53.4889 24.6626C55.4263 7.28795 41.2436 -0.948036 24.665 0.0866295Z" fill="white"/>
<path d="M25.0199 80C29.8299 80 33.7292 76.1598 33.7292 71.4227C33.7292 66.6855 29.8299 62.8453 25.0199 62.8453C20.2098 62.8453 16.3105 66.6855 16.3105 71.4227C16.3105 76.1598 20.2098 80 25.0199 80Z" fill="white"/>
</svg>
